<?xml version="1.0" standalone="no"?>
<!DOCTYPE svg PUBLIC "-//W3C//DTD SVG 20010904//EN"
 "http://www.w3.org/TR/2001/REC-SVG-20010904/DTD/svg10.dtd">
<svg version="1.0" xmlns="http://www.w3.org/2000/svg"
 width="500.000000pt" height="500.000000pt" viewBox="0 0 500.000000 500.000000"
 preserveAspectRatio="xMidYMid meet">
<metadata>
Created by potrace 1.14, written by Peter Selinger 2001-2017
</metadata>
<g transform="translate(0.000000,500.000000) scale(0.100000,-0.100000)"
fill="#000000" stroke="none">
<path d="M0 2500 l0 -2500 2500 0 2500 0 0 2500 0 2500 -2500 0 -2500 0 0
-2500z m4158 868 c-3 -13 -90 -393 -194 -845 l-189 -823 -156 0 -157 0 9 38
c4 20 92 398 194 840 102 442 185 805 185 808 0 2 70 4 156 4 l156 0 -4 -22z
m-2068 -845 c102 -278 186 -512 188 -520 3 -11 -28 -13 -168 -11 l-172 3 -24
78 -25 77 -172 -2 -172 -3 -26 -75 -26 -75 -173 -3 c-162 -2 -172 -1 -165 15
5 13 314 858 370 1011 3 9 51 12 192 12 l188 0 185 -507z m850 497 c118 -22
205 -81 256 -172 27 -49 29 -60 29 -158 0 -96 -2 -109 -27 -150 -35 -59 -85
-107 -141 -134 l-46 -21 109 -190 c60 -105 110 -193 110 -197 0 -5 -80 -8
-177 -8 l-178 0 -90 176 c-49 96 -93 178 -97 180 -5 3 -8 -76 -8 -175 l0 -181
-160 0 -160 0 0 520 0 520 264 0 c145 0 287 -5 316 -10z m-2076 -222 c-4 -7
-64 -80 -132 -161 l-123 -148 118 -142 c65 -78 124 -150 132 -160 13 -16 2
-17 -190 -16 l-204 0 -132 159 -133 159 82 98 c45 54 106 126 136 161 l54 62
199 0 c158 0 199 -3 193 -12z m3803 -151 l133 -159 -56 -66 c-30 -37 -90 -109
-132 -159 l-77 -93 -204 0 c-193 0 -203 1 -189 18 8 9 61 73 118 142 57 69
110 133 118 142 13 16 3 31 -104 160 -66 79 -125 151 -133 161 -13 17 -4 17
190 15 l204 -3 132 -158z"/>
<path d="M1670 2535 c-24 -74 -41 -137 -38 -140 3 -3 44 -5 91 -3 l86 3 -44
133 c-24 74 -45 136 -47 138 -2 2 -24 -57 -48 -131z"/>
<path d="M2680 2665 l0 -85 84 0 c107 0 136 18 136 86 0 71 -21 84 -130 84
l-90 0 0 -85z"/>
</g>
</svg>
